<?xml version="1.0" encoding="utf-8"?>
<svg version="1.1" id="Capa_1" xmlns="http://www.w3.org/2000/svg" xmlns:xlink="http://www.w3.org/1999/xlink" x="0px" y="0px" viewBox="0 0 72 72" style="enable-background:new 0 0 72 72;" xml:space="preserve">
<style type="text/css">
	.st0{fill-rule:evenodd;clip-rule:evenodd;fill:#666666;}
	.st1{fill-rule:evenodd;clip-rule:evenodd;fill:#FFFFFF;}
</style>
<path class="st0" d="M59.192,46.308c0,0.697-0.256,1.303-0.765,1.813c-0.51,0.509-1.115,0.765-1.813,0.765H39.342l-2.053,19.448
	c-0.053,0.323-0.196,0.598-0.422,0.828c-0.229,0.227-0.504,0.34-0.825,0.34H36c-0.724,0-1.153-0.362-1.288-1.085l-3.06-19.53H15.385
	c-0.697,0-1.301-0.256-1.813-0.765c-0.509-0.509-0.765-1.115-0.765-1.813c0-3.301,1.054-6.274,3.161-8.919
	c2.107-2.642,4.489-3.965,7.148-3.965V12.809c-1.397,0-2.606-0.511-3.625-1.53c-1.02-1.021-1.529-2.23-1.529-3.624
	c0-1.398,0.509-2.604,1.529-3.624C20.51,3.01,21.719,2.5,23.117,2.5h25.767c1.397,0,2.604,0.51,3.625,1.53
	c1.02,1.021,1.529,2.227,1.529,3.624c0,1.395-0.509,2.604-1.529,3.624c-1.021,1.019-2.228,1.53-3.625,1.53v20.615
	c2.66,0,5.041,1.323,7.148,3.965C58.138,40.034,59.192,43.007,59.192,46.308z"/>
<path class="st1" d="M32.134,32.136L32.134,32.136c0,0.376-0.12,0.683-0.362,0.927c-0.241,0.242-0.55,0.362-0.927,0.362
	c-0.374,0-0.683-0.12-0.927-0.362c-0.241-0.242-0.362-0.55-0.362-0.927V14.098c0-0.377,0.121-0.686,0.362-0.927
	c0.244-0.241,0.553-0.362,0.927-0.362c0.377,0,0.686,0.12,0.927,0.362c0.241,0.241,0.362,0.55,0.362,0.927V32.136z"/>
</svg>
