<?xml version="1.0" encoding="utf-8"?>
<svg version="1.1" id="Capa_1" xmlns="http://www.w3.org/2000/svg" xmlns:xlink="http://www.w3.org/1999/xlink" x="0px" y="0px" viewBox="0 0 190 130" style="enable-background:new 0 0 190 130;" xml:space="preserve">
<style type="text/css">
	.st0{fill-rule:evenodd;clip-rule:evenodd;fill:#666666;}
	.st1{fill-rule:evenodd;clip-rule:evenodd;fill:#666666;}
	.st2{fill-rule:evenodd;clip-rule:evenodd;fill:#666666;}
	.st3{fill-rule:evenodd;clip-rule:evenodd;fill:#00D7FF;}
	.st4{fill-rule:evenodd;clip-rule:evenodd;fill:#FF6964;}
	.st5{fill-rule:evenodd;clip-rule:evenodd;fill:#FAA550;}
	.st6{fill-rule:evenodd;clip-rule:evenodd;fill:#FFDC7D;}
	.st7{fill-rule:evenodd;clip-rule:evenodd;fill:#7DEBD7;}
</style>
<path class="st0" d="M5.609,121.719l40.262-20.132l17.314-50.894l32.271,34.832l34.352-39.191l52.925-22.178l1.531,3.687l-52.075,21.822L95.543,91.475L64.814,58.306l-15.686,46.106L7.391,125.281L5.609,121.719z"/>
<path class="st1" d="M133,5h-4V1h4V5L133,5z M133,29h-4v-4h4V29L133,29z M133,21h-4v-4h4V21L133,21z M133,13h-4V9h4V13L133,13z M133,71h-4v-4h4V71L133,71z M133,95h-4v-4h4V95L133,95z M133,87h-4v-4h4V87L133,87z M133,79h-4v-4h4V79z"/>
<path class="st2" d="M131,41.5c3.59,0,6.5,2.91,6.5,6.5c0,3.59-2.91,6.5-6.5,6.5c-3.59,0-6.5-2.91-6.5-6.5C124.5,44.41,127.41,41.5,131,41.5L131,41.5z M131,37c-6.075,0-11,4.925-11,11s4.925,11,11,11c6.075,0,11-4.925,11-11S137.075,37,131,37L131,37z M131,33c-8.285,0-15,6.716-15,15c0,8.284,6.715,15,15,15c8.285,0,15-6.715,15-15C146,39.716,139.285,33,131,33z"/>
<path class="st3" d="M6.5,117c3.59,0,6.5,2.91,6.5,6.5s-2.91,6.5-6.5,6.5S0,127.09,0,123.5S2.91,117,6.5,117z"/>
<path class="st4" d="M47.5,96.5c3.59,0,6.5,2.91,6.5,6.5c0,3.59-2.91,6.5-6.5,6.5c-3.59,0-6.5-2.91-6.5-6.5C41,99.41,43.91,96.5,47.5,96.5z"/>
<path class="st5" d="M64,48c3.59,0,6.5,2.91,6.5,6.5c0,3.59-2.91,6.5-6.5,6.5c-3.59,0-6.5-2.91-6.5-6.5C57.5,50.91,60.41,48,64,48z"/>
<path class="st6" d="M95.5,82c3.59,0,6.5,2.91,6.5,6.5S99.09,95,95.5,95S89,92.09,89,88.5S91.91,82,95.5,82z"/>
<path class="st7" d="M183.5,19.5c3.59,0,6.5,2.91,6.5,6.5s-2.91,6.5-6.5,6.5S177,29.59,177,26S179.91,19.5,183.5,19.5z"/>
</svg>
