<?xml version="1.0" encoding="utf-8"?>
<svg version="1.1" id="Capa_1" xmlns="http://www.w3.org/2000/svg" xmlns:xlink="http://www.w3.org/1999/xlink" x="0px" y="0px" viewBox="0 0 72 72" style="enable-background:new 0 0 72 72;" xml:space="preserve">
<style type="text/css">
	.st0{fill-rule:evenodd;clip-rule:evenodd;fill:#666666;}
	.st1{fill-rule:evenodd;clip-rule:evenodd;fill:#FFFFFF;}
</style>
<path class="st0" d="M10,11h52c2.2,0,4,1.8,4,4v42c0,2.2-1.8,4-4,4H10c-2.2,0-4-1.8-4-4V15C6,12.8,7.8,11,10,11z"/>
<path class="st1" d="M49.814,43.18c0.46,0.452,0.686,1.006,0.686,1.662c0,0.65-0.226,1.204-0.686,1.656l-3.316,3.325
	c-0.459,0.452-1.013,0.678-1.662,0.678c-0.649,0-1.203-0.226-1.655-0.678L36,42.64l-7.174,7.182
	c-0.458,0.452-1.013,0.678-1.662,0.678c-0.649,0-1.203-0.226-1.662-0.678l-3.317-3.325c-0.452-0.452-0.686-1.006-0.686-1.656
	c0-0.657,0.234-1.21,0.686-1.662l7.173-7.183l-7.173-7.175c-0.452-0.452-0.686-1.006-0.686-1.662c0-0.65,0.234-1.204,0.686-1.656
	l3.317-3.325c0.459-0.452,1.013-0.679,1.662-0.679c0.649,0,1.203,0.226,1.662,0.679L36,29.361l7.181-7.182
	c0.452-0.452,1.006-0.679,1.655-0.679c0.649,0,1.203,0.226,1.662,0.679l3.316,3.325c0.46,0.452,0.686,1.006,0.686,1.656
	c0,0.656-0.226,1.21-0.686,1.662l-7.173,7.175L49.814,43.18z"/>
</svg>
