<?xml version="1.0" encoding="utf-8"?>
<svg version="1.1" id="Capa_1" xmlns="http://www.w3.org/2000/svg" xmlns:xlink="http://www.w3.org/1999/xlink" x="0px" y="0px" viewBox="0 0 72 72" style="enable-background:new 0 0 72 72;" xml:space="preserve">
<style type="text/css">
	.st0{fill-rule:evenodd;clip-rule:evenodd;fill:#1A5DA3;}
	.st1{fill-rule:evenodd;clip-rule:evenodd;fill:#FFFFFF;}
</style>
<path class="st0" d="M56.574,45.006c0,5.676-2.016,10.524-6.036,14.544c-4.008,4.02-8.868,6.024-14.544,6.024
	c-5.676,0-10.524-2.004-14.544-6.024c-4.02-4.02-6.024-8.868-6.024-14.544c0-3.888,1.08-7.572,3.252-11.052
	c0.168-0.24,0.996-1.452,2.508-3.636c1.524-2.184,2.868-4.212,4.068-6.072c1.188-1.86,2.52-4.236,3.996-7.152
	c1.476-2.904,2.58-5.604,3.336-8.088c0.24-0.804,0.696-1.44,1.368-1.896c0.66-0.456,1.344-0.684,2.04-0.684
	c0.696,0,1.392,0.228,2.076,0.684c0.684,0.456,1.128,1.092,1.344,1.896c0.744,2.484,1.86,5.184,3.336,8.088
	c1.476,2.916,2.808,5.292,3.996,7.152c1.188,1.86,2.544,3.888,4.056,6.072c1.512,2.184,2.352,3.396,2.508,3.636
	C55.482,37.35,56.574,41.034,56.574,45.006z"/>
<path class="st1" d="M34.494,53.778c-1.008,1.008-2.22,1.512-3.636,1.512c-1.428,0-2.64-0.504-3.636-1.512
	c-1.008-0.996-1.512-2.208-1.512-3.636c0-0.96,0.264-1.884,0.804-2.772c0.024-0.024,0.24-0.324,0.624-0.9
	c0.384-0.576,0.732-1.08,1.02-1.524c0.3-0.444,0.636-1.032,1.008-1.776c0.372-0.732,0.66-1.404,0.84-2.028
	c0.108-0.42,0.396-0.636,0.852-0.636c0.456,0,0.732,0.216,0.84,0.636c0.192,0.624,0.468,1.296,0.84,2.028
	c0.384,0.744,0.708,1.332,1.008,1.776c0.3,0.444,0.636,0.948,1.02,1.524c0.396,0.576,0.6,0.876,0.624,0.9
	c0.54,0.888,0.804,1.812,0.804,2.772C35.994,51.57,35.49,52.782,34.494,53.778z"/>
</svg>
