<?xml version="1.0" encoding="utf-8"?>
<svg version="1.1" id="Capa_1" xmlns="http://www.w3.org/2000/svg" xmlns:xlink="http://www.w3.org/1999/xlink" x="0px" y="0px" viewBox="0 0 72 72" style="enable-background:new 0 0 72 72;" xml:space="preserve">
<style type="text/css">
	.st0{fill-rule:evenodd;clip-rule:evenodd;fill:#C00812;}
	.st1{fill-rule:evenodd;clip-rule:evenodd;fill:#C00812;}
	.st2{fill-rule:evenodd;clip-rule:evenodd;fill:#C00812;}
</style>
<path class="st0" d="M51.426,54c0,4.956-1.764,9.192-5.28,12.72C42.618,70.236,38.382,72,33.426,72s-9.192-1.764-12.72-5.28
	c-3.516-3.528-5.28-7.764-5.28-12.72c0-4.872,1.716-9.06,5.148-12.576v-28.56c0-3.564,1.248-6.6,3.756-9.108
	C26.826,1.248,29.862,0,33.426,0s6.6,1.248,9.096,3.756c2.508,2.508,3.756,5.544,3.756,9.108v28.56
	C49.71,44.94,51.426,49.128,51.426,54L51.426,54z M46.278,54c0-2.064-0.444-3.984-1.356-5.784c-0.912-1.8-2.172-3.3-3.78-4.5V12.864
	c0-2.148-0.756-3.972-2.256-5.472c-1.5-1.5-3.312-2.244-5.46-2.244s-3.96,0.744-5.46,2.244c-1.5,1.5-2.256,3.324-2.256,5.472v30.852
	c-1.608,1.2-2.868,2.7-3.78,4.5c-0.912,1.8-1.356,3.72-1.356,5.784c0,3.564,1.248,6.6,3.756,9.096
	c2.496,2.508,5.532,3.768,9.096,3.768s6.6-1.26,9.096-3.768C45.03,60.6,46.278,57.564,46.278,54z"/>
<path class="st1" d="M41.142,54c0,2.148-0.756,3.96-2.256,5.46c-1.5,1.5-3.312,2.256-5.46,2.256s-3.96-0.756-5.46-2.256
	c-1.5-1.5-2.256-3.312-2.256-5.46c0-1.608,0.468-3.084,1.404-4.416c0.936-1.344,2.184-2.292,3.744-2.856v-26.16h5.136v26.16
	c1.56,0.564,2.808,1.512,3.744,2.856C40.674,50.916,41.142,52.392,41.142,54z"/>
<path class="st2" d="M56.574,10.284v5.148h-7.716v-5.148H56.574L56.574,10.284z M56.574,20.568v5.148h-7.716v-5.148H56.574
	L56.574,20.568z M56.574,30.864V36h-7.716v-5.136H56.574z"/>
</svg>
