<?xml version="1.0" encoding="UTF-8" standalone="no"?>
<svg
   xmlns:osb="http://www.openswatchbook.org/uri/2009/osb"
   xmlns:dc="http://purl.org/dc/elements/1.1/"
   xmlns:cc="http://creativecommons.org/ns#"
   xmlns:rdf="http://www.w3.org/1999/02/22-rdf-syntax-ns#"
   xmlns:svg="http://www.w3.org/2000/svg"
   xmlns="http://www.w3.org/2000/svg"
   xmlns:sodipodi="http://sodipodi.sourceforge.net/DTD/sodipodi-0.dtd"
   xmlns:inkscape="http://www.inkscape.org/namespaces/inkscape"
   height="100px"
   width="100px"
   fill="#000000"
   version="1.1"
   x="0px"
   y="0px"
   viewBox="0 0 256 256"
   style="enable-background:new 0 0 256 256;"
   xml:space="preserve"
   id="svg8"
   sodipodi:docname="noun_conectividad_blanco.svg"
   inkscape:version="0.92.4 (5da689c313, 2019-01-14)"><metadata
     id="metadata14"><rdf:RDF><cc:Work
         rdf:about=""><dc:format>image/svg+xml</dc:format><dc:type
           rdf:resource="http://purl.org/dc/dcmitype/StillImage" /><dc:title></dc:title></cc:Work></rdf:RDF></metadata><defs
     id="defs12"><linearGradient
       id="linearGradient1946"
       osb:paint="solid"><stop
         style="stop-color:#999999;stop-opacity:1;"
         offset="0"
         id="stop1944" /></linearGradient></defs><sodipodi:namedview
     pagecolor="#ffffff"
     bordercolor="#666666"
     borderopacity="1"
     objecttolerance="10"
     gridtolerance="10"
     guidetolerance="10"
     inkscape:pageopacity="0"
     inkscape:pageshadow="2"
     inkscape:window-width="1920"
     inkscape:window-height="1017"
     id="namedview10"
     showgrid="false"
     inkscape:zoom="4.72"
     inkscape:cx="1.9855159"
     inkscape:cy="28.100007"
     inkscape:window-x="-8"
     inkscape:window-y="-8"
     inkscape:window-maximized="1"
     inkscape:current-layer="svg8"
     inkscape:pagecheckerboard="true" /><g
     id="g6"
     style="fill:#ffffff;fill-opacity:1"
     transform="matrix(1.1759398,0,0,1.1759398,-33.694564,-17.660767)"><g
       id="g4"
       style="fill:#ffffff;fill-opacity:1"><path
         d="m 206.7,167.9 c -6.6,1.2 -12.3,4.3 -16.7,8.8 l -29.8,-20.9 c 1.8,-5.4 2.4,-11.3 1.3,-17.4 -1.1,-6.1 -3.6,-11.4 -7.2,-15.9 L 167.9,103 c 4.7,2.1 10.1,2.9 15.6,1.9 14.7,-2.6 24.5,-16.6 21.9,-31.3 -2.6,-14.7 -16.6,-24.5 -31.3,-21.9 -14.7,2.6 -24.5,16.6 -21.9,31.3 1,5.5 3.5,10.3 7.1,14 l -12.9,18.4 c -5.9,-3.9 -12.9,-6.1 -20.3,-5.9 l -5.6,-31.9 c 14,-5 22.8,-19.5 20.2,-34.7 -3,-16.9 -19.2,-28.2 -36.1,-25.3 -16.9,2.9 -28.2,19.3 -25.2,36.2 2.7,15.1 15.9,25.8 30.8,25.7 l 5.6,31.9 c -14.5,4.9 -24.2,18.7 -23.8,34 l -10.6,1.9 C 77,136.2 65.1,129.2 52.9,131.4 c -14.1,2.5 -23.5,15.9 -21,30 2.5,14 15.9,23.5 30,21 12.3,-2.2 21,-12.7 21.4,-24.7 l 10.6,-1.9 c 5.4,16.2 22,26.4 39.3,23.4 9.3,-1.6 17,-6.8 22.2,-13.9 l 28.7,20.1 c -2.7,5.6 -3.7,12.1 -2.5,18.7 3,16.9 19.2,28.2 36.1,25.3 16.9,-3 28.2,-19.2 25.3,-36.1 -3.2,-17 -19.4,-28.4 -36.3,-25.4 z M 176,62.1 c 9,-1.6 17.6,4.4 19.1,13.4 1.5,9 -4.4,17.6 -13.4,19.1 -2.6,0.5 -5.1,0.2 -7.5,-0.5 -3.5,-1 -6.5,-3.1 -8.6,-6 -1.5,-2 -2.6,-4.3 -3,-6.9 C 161,72.3 167.1,63.7 176,62.1 Z M 72.4,159.5 c -1.1,6.2 -5.9,11.3 -12.4,12.4 -8.3,1.5 -16.3,-4.1 -17.8,-12.4 -1.5,-8.3 4.1,-16.3 12.4,-17.8 6.5,-1.1 12.7,2 15.9,7.4 0.9,1.5 1.6,3.2 1.9,5 0.3,1.9 0.3,3.7 0,5.4 z M 113.6,68.7 C 111.8,69 110,69.1 108.3,68.9 99.2,68.1 91.4,61.4 89.7,52 c -2,-11.2 5.5,-21.9 16.7,-23.9 11.2,-2 21.9,5.5 23.9,16.7 1.7,9.4 -3.4,18.4 -11.7,22.3 -1.5,0.7 -3.2,1.3 -5,1.6 z m 102.1,150.2 c -11.2,2 -21.9,-5.5 -23.9,-16.7 -0.7,-3.7 -0.2,-7.4 1,-10.7 1.2,-3.3 3.3,-6.3 6,-8.6 2.7,-2.3 6,-3.9 9.7,-4.6 11.2,-2 21.9,5.5 23.9,16.7 2,11.2 -5.5,21.9 -16.7,23.9 z"
         id="path2"
         style="fill:#ffffff;fill-opacity:1"
         inkscape:connector-curvature="0" /></g></g></svg>